<svg xmlns="http://www.w3.org/2000/svg" version="1.1" xmlns:xlink="http://www.w3.org/1999/xlink" xmlns:svgjs="http://svgjs.dev/svgjs" width="1500" height="500" viewBox="0 0 1500 500"><g transform="matrix(1,0,0,1,-0.9090909090909918,0.21173854504579026)"><svg viewBox="0 0 396 132" data-background-color="#ffffff" preserveAspectRatio="xMidYMid meet" height="500" width="1500" xmlns="http://www.w3.org/2000/svg" xmlns:xlink="http://www.w3.org/1999/xlink"><g id="tight-bounds" transform="matrix(1,0,0,1,0.2400000000000091,-0.055898975892091585)"><svg viewBox="0 0 395.52 132.11179795178415" height="132.11179795178415" width="395.52"><g><svg viewBox="0 0 661.4864901416879 220.95006455661797" height="132.11179795178415" width="395.52"><g transform="matrix(1,0,0,1,265.9664901416879,35.04992275194202)"><svg viewBox="0 0 395.52 150.85021905273393" height="150.85021905273393" width="395.52"><g id="textblocktransform"><svg viewBox="0 0 395.52 150.85021905273393" height="150.85021905273393" width="395.52" id="textblock"><g><svg viewBox="0 0 395.52 95.34307931570761" height="95.34307931570761" width="395.52"><g transform="matrix(1,0,0,1,0,0)"><svg width="395.52" viewBox="4.2 -38 160.74 38.75" height="95.34307931570761" data-palette-color="#1c4b82"><path d="M18.25-12.1L27.25 0 19.5 0 10.55-12.6 10.55 0 4.2 0 4.2-34.85 13.9-34.85Q17.45-34.85 20.25-33.81 23.05-32.77 24.68-30.35 26.3-27.93 26.3-23.75L26.3-23.75Q26.3-21.48 25.54-19.06 24.78-16.65 23.01-14.75 21.25-12.85 18.25-12.1L18.25-12.1ZM10.55-29.85L10.55-15.75 13.2-15.75Q15.4-15.75 16.89-16.79 18.38-17.82 19.14-19.51 19.9-21.2 19.9-23.15L19.9-23.15Q19.9-26.53 18.35-28.19 16.8-29.85 13.05-29.85L13.05-29.85 10.55-29.85ZM42.65 0.65L42.65 0.65Q38.45 0.65 35.87-1.11 33.3-2.88 32.12-5.79 30.95-8.7 30.95-12.15L30.95-12.15Q30.95-15.78 32.28-18.81 33.62-21.85 36.21-23.68 38.8-25.5 42.55-25.5L42.55-25.5Q48.15-25.5 50.37-22.26 52.6-19.03 52.6-13.1L52.6-13.1Q52.6-12.58 52.57-11.78 52.55-10.98 52.5-10.4L52.5-10.4 37.5-10.4Q37.65-7.45 39.16-5.78 40.67-4.1 43.7-4.1L43.7-4.1Q45.25-4.1 47.02-4.79 48.8-5.48 49.65-6.45L49.65-6.45 51.65-1.7Q50.65-1.03 48.48-0.19 46.32 0.65 42.65 0.65ZM37.45-14.3L37.45-14.3 46.25-14.3Q46.25-16.93 45.78-18.31 45.32-19.7 44.52-20.23 43.72-20.75 42.7-20.75L42.7-20.75Q40.15-20.75 38.87-18.86 37.6-16.98 37.45-14.3ZM64.59 0L58.7 0 58.7-38 64.59-38 64.59-19.35 64.4-13.5 72.05-24.9 79.15-24.9 70.45-13.45 80 0 72.45 0 64.4-12.05 64.59-5.95 64.59 0ZM89.84 0L83.59 0 83.59-24.9 89.24-24.9 89.54-20.5Q89.94-21.48 90.78-22.58 91.62-23.68 93.11-24.44 94.59-25.2 96.94-25.2L96.94-25.2Q97.67-25.2 98.22-25.1 98.77-25 99.24-24.8L99.24-24.8 97.84-18.25Q97.04-19.05 95.39-19.05L95.39-19.05Q93.47-19.05 92.24-18.26 91.02-17.48 90.43-16.5 89.84-15.53 89.84-15L89.84-15 89.84 0ZM110.09 0.6L110.09 0.6Q106.32 0.6 104.53-1.81 102.74-4.23 102.74-8.45L102.74-8.45 102.74-24.9 108.99-24.9 108.99-9Q108.99-6.95 109.74-5.65 110.49-4.35 112.29-4.35L112.29-4.35Q114.07-4.35 115.25-5.65 116.44-6.95 116.44-9L116.44-9 116.44-24.9 122.69-24.9 122.69 0 117.04 0 116.92-3.23Q115.99-1.75 114.4-0.58 112.82 0.6 110.09 0.6ZM138.29 0.75L138.29 0.75Q134.06 0.75 132.58-1.45 131.09-3.65 131.09-8.1L131.09-8.1 131.09-19.65 127.84-19.65 127.84-24.9 131.34-24.9 131.69-30.15 137.14-32.5 137.14-24.9 143.29-24.9 143.29-19.65 137.14-19.65 137.14-8.25Q137.14-6.08 137.75-5.24 138.36-4.4 139.44-4.4L139.44-4.4Q140.54-4.4 141.76-4.98 142.99-5.55 143.69-6.15L143.69-6.15 144.89-1.1Q144.11-0.55 142.88-0.14 141.64 0.28 140.38 0.51 139.11 0.75 138.29 0.75ZM155.54 0L149.29 0 149.29-24.9 154.94-24.9 155.24-20.5Q155.64-21.48 156.47-22.58 157.31-23.68 158.8-24.44 160.29-25.2 162.64-25.2L162.64-25.2Q163.36-25.2 163.91-25.1 164.46-25 164.94-24.8L164.94-24.8 163.54-18.25Q162.74-19.05 161.09-19.05L161.09-19.05Q159.16-19.05 157.94-18.26 156.71-17.48 156.12-16.5 155.54-15.53 155.54-15L155.54-15 155.54 0Z" opacity="1" transform="matrix(1,0,0,1,0,0)" fill="#1c4b82" class="wordmark-text-0" data-fill-palette-color="primary" id="text-0"></path></svg></g></svg></g><g transform="matrix(1,0,0,1,98.87999999999997,117.8512921082426)"><svg viewBox="0 0 197.76000000000005 32.99892694449132" height="32.99892694449132" width="197.76000000000005"><g transform="matrix(1,0,0,1,0,0)"><svg width="197.76000000000005" viewBox="3.8 -38.85 296.31 49.45" height="32.99892694449132" data-palette-color="#1c4b82"><path d="M24 0L19.45 0 19.45-16.2 8.35-16.2 8.35 0 3.8 0 3.8-34.45 8.35-34.45 8.35-19.95 19.45-19.95 19.45-34.45 24-34.45 24 0ZM31.45-26.35L35.85-26.35 35.85 0 31.45 0 31.45-26.35ZM33.6-38.85Q34.95-38.85 35.75-38 36.55-37.15 36.55-35.8L36.55-35.8Q36.55-34.55 35.72-33.7 34.9-32.85 33.6-32.85L33.6-32.85Q32.3-32.85 31.47-33.7 30.65-34.55 30.65-35.8L30.65-35.8Q30.65-37.1 31.47-37.98 32.3-38.85 33.6-38.85L33.6-38.85ZM53.25-26.9Q54.35-26.9 55.25-26.6L55.25-26.6 54.5-22.35Q53.5-22.6 52.7-22.6L52.7-22.6Q50.75-22.6 49.5-20.85 48.25-19.1 47.55-15.5L47.55-15.5 47.55 0 43.15 0 43.15-26.35 46.95-26.35 47.3-21.45Q49.15-26.9 53.25-26.9L53.25-26.9ZM59.29-26.35L63.69-26.35 63.69 0 59.29 0 59.29-26.35ZM61.44-38.85Q62.79-38.85 63.59-38 64.39-37.15 64.39-35.8L64.39-35.8Q64.39-34.55 63.57-33.7 62.74-32.85 61.44-32.85L61.44-32.85Q60.14-32.85 59.32-33.7 58.49-34.55 58.49-35.8L58.49-35.8Q58.49-37.1 59.32-37.98 60.14-38.85 61.44-38.85L61.44-38.85ZM81.74-26.9Q84.59-26.9 86.29-24.85 87.99-22.8 87.99-19.35L87.99-19.35 87.99 0 83.59 0 83.59-18.75Q83.59-21.3 82.87-22.38 82.14-23.45 80.69-23.45L80.69-23.45Q77.84-23.45 75.39-18.55L75.39-18.55 75.39 0 70.99 0 70.99-26.35 74.79-26.35 75.14-22.4Q76.44-24.6 77.99-25.75 79.54-26.9 81.74-26.9L81.74-26.9ZM111.74-29.15L113.04-25.2Q111.89-24.7 110.46-24.55 109.04-24.4 106.84-24.4L106.84-24.4Q110.69-22.3 110.69-17.7L110.69-17.7Q110.69-13.65 108.44-11.23 106.19-8.8 102.24-8.8L102.24-8.8Q100.79-8.8 99.59-9.3L99.59-9.3Q99.09-8.9 98.81-8.22 98.54-7.55 98.54-6.8L98.54-6.8Q98.54-5.7 99.14-5.08 99.74-4.45 101.29-4.45L101.29-4.45 104.19-4.45Q106.64-4.45 108.49-3.5 110.34-2.55 111.31-0.93 112.29 0.7 112.29 2.65L112.29 2.65Q112.29 6.25 109.61 8.43 106.94 10.6 101.89 10.6L101.89 10.6Q96.69 10.6 94.51 8.58 92.34 6.55 92.34 2.65L92.34 2.65 96.24 2.65Q96.24 5.1 97.44 6.13 98.64 7.15 101.94 7.15L101.94 7.15Q105.14 7.15 106.54 6.08 107.94 5 107.94 2.95L107.94 2.95Q107.94-0.95 103.34-0.95L103.34-0.95 101.49-0.95Q97.89-0.95 96.24-2.27 94.59-3.6 94.59-5.85L94.59-5.85Q94.59-8.25 97.19-10.35L97.19-10.35Q93.34-12.7 93.34-17.75L93.34-17.75Q93.34-21.9 95.79-24.4 98.24-26.9 102.14-26.9L102.14-26.9Q105.64-26.9 107.64-27.45 109.64-28 111.74-29.15L111.74-29.15ZM102.09-23.75Q99.89-23.75 98.79-22.3 97.69-20.85 97.69-17.75L97.69-17.75Q97.69-15.05 98.84-13.4 99.99-11.75 102.04-11.75L102.04-11.75Q104.24-11.75 105.29-13.15 106.34-14.55 106.34-17.8L106.34-17.8Q106.34-23.75 102.09-23.75L102.09-23.75ZM135.03-35Q137.78-35 139.91-34.02 142.03-33.05 143.83-31.05L143.83-31.05 141.43-28.45Q139.88-29.95 138.38-30.63 136.88-31.3 135.08-31.3L135.08-31.3Q132.93-31.3 131.61-29.93 130.28-28.55 130.28-26.3L130.28-26.3Q130.28-24.1 131.56-22.7 132.83-21.3 136.38-19.95L136.38-19.95Q140.48-18.4 142.58-16.1 144.68-13.8 144.68-9.55L144.68-9.55Q144.68-6.8 143.41-4.48 142.13-2.15 139.78-0.78 137.43 0.6 134.33 0.6L134.33 0.6Q131.23 0.6 128.83-0.55 126.43-1.7 124.48-3.85L124.48-3.85 126.93-6.45Q128.68-4.85 130.41-4 132.13-3.15 134.23-3.15L134.23-3.15Q136.83-3.15 138.38-4.85 139.93-6.55 139.93-9.45L139.93-9.45Q139.93-11.95 138.68-13.45 137.43-14.95 134.03-16.2L134.03-16.2Q129.68-17.85 127.66-20.2 125.63-22.55 125.63-26.1L125.63-26.1Q125.63-28.55 126.83-30.6 128.03-32.65 130.18-33.83 132.33-35 135.03-35L135.03-35ZM158.38-26.9Q163.08-26.9 165.66-23.43 168.23-19.95 168.23-13.2L168.23-13.2Q168.23-6.85 165.61-3.13 162.98 0.6 158.33 0.6L158.33 0.6Q153.68 0.6 151.08-3.05 148.48-6.7 148.48-13.15L148.48-13.15Q148.48-19.8 151.08-23.35 153.68-26.9 158.38-26.9L158.38-26.9ZM158.38-23.35Q155.73-23.35 154.43-20.98 153.13-18.6 153.13-13.15L153.13-13.15Q153.13-7.75 154.43-5.35 155.73-2.95 158.33-2.95L158.33-2.95Q160.98-2.95 162.28-5.35 163.58-7.75 163.58-13.2L163.58-13.2Q163.58-18.6 162.28-20.98 160.98-23.35 158.38-23.35L158.38-23.35ZM178.73 0.6Q176.53 0.6 175.2-0.8 173.88-2.2 173.88-4.6L173.88-4.6 173.88-36.95 178.28-37.45 178.28-4.7Q178.28-3.05 179.68-3.05L179.68-3.05Q180.33-3.05 180.93-3.3L180.93-3.3 181.93-0.3Q180.48 0.6 178.73 0.6L178.73 0.6ZM202.98-26.35L202.98 0 199.18 0 198.88-3.7Q197.63-1.55 196.05-0.48 194.48 0.6 192.38 0.6L192.38 0.6Q189.53 0.6 187.83-1.35 186.13-3.3 186.13-6.45L186.13-6.45 186.13-26.35 190.53-26.35 190.53-6.9Q190.53-2.85 193.38-2.85L193.38-2.85Q195.03-2.85 196.28-4.03 197.53-5.2 198.58-7.3L198.58-7.3 198.58-26.35 202.98-26.35ZM220.22-3.95L221.92-1.2Q219.67 0.6 216.87 0.6L216.87 0.6Q213.92 0.6 212.3-1.15 210.67-2.9 210.67-5.85L210.67-5.85 210.67-22.9 207.12-22.9 207.12-26.35 210.67-26.35 210.67-32.3 215.07-32.85 215.07-26.35 220.17-26.35 219.72-22.9 215.07-22.9 215.07-5.8Q215.07-3.05 217.42-3.05L217.42-3.05Q218.22-3.05 218.82-3.25 219.42-3.45 220.22-3.95L220.22-3.95ZM225.57-26.35L229.97-26.35 229.97 0 225.57 0 225.57-26.35ZM227.72-38.85Q229.07-38.85 229.87-38 230.67-37.15 230.67-35.8L230.67-35.8Q230.67-34.55 229.85-33.7 229.02-32.85 227.72-32.85L227.72-32.85Q226.42-32.85 225.6-33.7 224.77-34.55 224.77-35.8L224.77-35.8Q224.77-37.1 225.6-37.98 226.42-38.85 227.72-38.85L227.72-38.85ZM245.77-26.9Q250.47-26.9 253.04-23.43 255.62-19.95 255.62-13.2L255.62-13.2Q255.62-6.85 252.99-3.13 250.37 0.6 245.72 0.6L245.72 0.6Q241.07 0.6 238.47-3.05 235.87-6.7 235.87-13.15L235.87-13.15Q235.87-19.8 238.47-23.35 241.07-26.9 245.77-26.9L245.77-26.9ZM245.77-23.35Q243.12-23.35 241.82-20.98 240.52-18.6 240.52-13.15L240.52-13.15Q240.52-7.75 241.82-5.35 243.12-2.95 245.72-2.95L245.72-2.95Q248.37-2.95 249.67-5.35 250.97-7.75 250.97-13.2L250.97-13.2Q250.97-18.6 249.67-20.98 248.37-23.35 245.77-23.35L245.77-23.35ZM272.27-26.9Q275.12-26.9 276.82-24.85 278.52-22.8 278.52-19.35L278.52-19.35 278.52 0 274.12 0 274.12-18.75Q274.12-21.3 273.39-22.38 272.67-23.45 271.22-23.45L271.22-23.45Q268.37-23.45 265.92-18.55L265.92-18.55 265.92 0 261.52 0 261.52-26.35 265.32-26.35 265.67-22.4Q266.97-24.6 268.52-25.75 270.07-26.9 272.27-26.9L272.27-26.9ZM292.01-26.9Q296.36-26.9 299.46-23.95L299.46-23.95 297.56-21.4Q296.16-22.45 294.86-22.98 293.56-23.5 292.11-23.5L292.11-23.5Q290.36-23.5 289.34-22.53 288.31-21.55 288.31-19.85L288.31-19.85Q288.31-18.2 289.31-17.25 290.31-16.3 293.11-15.3L293.11-15.3Q296.71-14 298.41-12.2 300.11-10.4 300.11-7.3L300.11-7.3Q300.11-3.55 297.59-1.48 295.06 0.6 291.31 0.6L291.31 0.6Q286.31 0.6 282.96-2.85L282.96-2.85 285.26-5.3Q288.06-2.85 291.21-2.85L291.21-2.85Q293.21-2.85 294.41-3.95 295.61-5.05 295.61-7.05L295.61-7.05Q295.61-8.4 295.16-9.25 294.71-10.1 293.61-10.8 292.51-11.5 290.41-12.25L290.41-12.25Q286.91-13.55 285.41-15.33 283.91-17.1 283.91-19.7L283.91-19.7Q283.91-21.7 284.94-23.35 285.96-25 287.81-25.95 289.66-26.9 292.01-26.9L292.01-26.9Z" opacity="1" transform="matrix(1,0,0,1,0,0)" fill="#1c4b82" class="slogan-text-1" data-fill-palette-color="secondary" id="text-1"></path></svg></g></svg></g></svg></g></svg></g><g><svg viewBox="0 0 220.95006455661797 220.95006455661797" height="220.95006455661797" width="220.95006455661797"><g><svg></svg></g><g id="icon-0"><svg viewBox="0 0 220.95006455661797 220.95006455661797" height="220.95006455661797" width="220.95006455661797"><g><path d="M0 110.475c0-61.014 49.461-110.475 110.475-110.475 61.014 0 110.475 49.461 110.475 110.475 0 61.014-49.461 110.475-110.475 110.475-61.014 0-110.475-49.461-110.475-110.475zM110.475 212.352c56.265 0 101.877-45.612 101.877-101.877 0-56.265-45.612-101.877-101.877-101.877-56.265 0-101.877 45.612-101.877 101.877 0 56.265 45.612 101.877 101.877 101.877z" data-fill-palette-color="accent" fill="#1c4b82" stroke="transparent"></path></g><g transform="matrix(1,0,0,1,52.39992714373511,60.37668399385559)"><svg viewBox="0 0 116.15021026914775 100.19669656890679" height="100.19669656890679" width="116.15021026914775"><g><svg xmlns="http://www.w3.org/2000/svg" xmlns:xlink="http://www.w3.org/1999/xlink" version="1.1" x="0" y="0" viewBox="0.507 7.136 98.51299999999999 84.982" enable-background="new 0 0 100 100" xml:space="preserve" height="100.19669656890679" width="116.15021026914775" class="icon-cg-0" data-fill-palette-color="accent" id="cg-0"><g fill="#1c4b82" data-fill-palette-color="accent"><path d="M22.048 42.728l3.781 4.727 12.813 17.784c0.061 0.085 0.131 0.137 0.207 0.163L23.004 90.852 15.187 44.39 22.048 42.728 22.048 42.728zM0.507 55.422c0.008-0.154 0.071-0.324 0.201-0.494l11.41-14.799c0.103-0.132 0.334-0.325 0.667-0.24l8.336 1.908c0.241 0.09 0.235 0.11 0.304 0.181l-6.647 1.611c-0.24 0.061-0.294 0.081-0.435 0.189L0.507 55.422 0.507 55.422zM19.537 87.812l-3.778-4.885c-0.027-0.031-0.048-0.07-0.065-0.111l2.475-1.047L19.537 87.812 19.537 87.812zM21.713 88.462c-0.284 0.136-0.674 0.322-1.066 0.287l-1.74-7.685c-0.065-0.285-0.329-0.418-0.598-0.307l-2.327 0.985c0.62-0.937 1.926-2.029 2.329-2.479L13.357 50.91 1.485 55.936c-0.115 0.047-0.224 0.073-0.325 0.082L14.382 44.89 21.713 88.462 21.713 88.462zM37.129 61.631l8.919-7.785-6.737 10.819L37.129 61.631 37.129 61.631zM39.486 86.967l-15.721 5.151c6.968-5.792 15.873-13.211 23.971-19.97L39.486 86.967 39.486 86.967zM98.23 86.475l-57.626 0.293 8.921-16.026L98.23 86.475 98.23 86.475zM99.02 85.784L50.25 70.055c9.45-7.883 17.344-14.474 18.996-15.854L99.02 85.784 99.02 85.784zM49.038 69.889c-0.044 0.032-0.08 0.07-0.104 0.112C40.737 76.85 31.492 84.555 24.16 90.65l22.048-35.404L49.038 69.889 49.038 69.889zM60.498 60.363l-10.686 8.914-2.798-14.482L60.498 60.363 60.498 60.363zM55.514 57.355l-7.964-3.289 8.808 1.449L55.514 57.355 55.514 57.355zM79.921 8.222c-0.108 1.073-5.56 50.118-5.56 50.118l-4.756-5.04c-0.146-0.159-0.437-0.178-0.604-0.038l-7.755 6.475c-0.039-0.035-4.927-2.043-4.927-2.043l6.82-14.868C63.143 42.824 79.249 9.773 79.921 8.222L79.921 8.222zM32.224 7.136c0.106 0.058 0.21 0.149 0.307 0.277l28.445 38.034-4.242 9.247-10.755-1.771c-0.06-0.01-0.313 0.062-0.359 0.104l-2.346 2.057L32.224 7.136 32.224 7.136zM26.009 46.159l5.342-38.442c0.013-0.084 0.03-0.16 0.056-0.228l11.118 48.247-5.909 5.181L26.009 46.159 26.009 46.159z" fill="#1c4b82" data-fill-palette-color="accent"></path></g></svg></g></svg></g></svg></g></svg></g></svg></g><defs></defs></svg><rect width="395.52" height="132.11179795178415" fill="none" stroke="none" visibility="hidden"></rect></g></svg></g></svg>